<svg xmlns="http://www.w3.org/2000/svg" viewBox="0 0 91.11 100"><defs><style>.cls-1{fill:#d91646;}</style></defs><g id="Camada_2" data-name="Camada 2"><g id="Camada_2-2" data-name="Camada 2"><path class="cls-1" d="M58.62,99.78a34.85,34.85,0,0,1-5.89.13c-1.12-.08-2.31-.18-3.55-.25s-2.5-.44-3.86-.68l-2.06-.4L41.16,98c-1.43-.48-3-.8-4.44-1.46a53.32,53.32,0,0,1-10.53-5.4C-14.64,65-3.67,13.54,31.27,2.14c1.6-.37,3.2-.76,4.8-1.16S39.33.49,41,.27s3.4-.18,5.1-.27,3.45.19,5.18.31a47.6,47.6,0,0,1,13.8,4,44.26,44.26,0,0,1,13.27,9.47A45.16,45.16,0,0,1,88.46,30a43.3,43.3,0,0,1,2.63,15.8c0,.88,0,1.75-.11,2.64a38.52,38.52,0,0,1-25.56,33,37.49,37.49,0,0,1-11.33,2.15A32.38,32.38,0,0,1,24.15,66a31.77,31.77,0,0,1-3.4-11.78,23.89,23.89,0,0,1-.08-4,26.63,26.63,0,0,1,1.82-8.56,27.3,27.3,0,0,1,18.26-16.4,27.87,27.87,0,0,1,4.35-.75c.63-.07,1.27-.1,1.91-.12a22.81,22.81,0,0,1,17.34,7.43A23.4,23.4,0,0,1,68,37.08a23.91,23.91,0,0,1,2,6,21,21,0,0,1,.17,6.39,19.7,19.7,0,0,1-2,6.16,19,19,0,0,1-9,8.65,18.06,18.06,0,0,1-6,1.62,16.32,16.32,0,0,1-6.35-.61,16.13,16.13,0,0,1-9.52-7.77,15.35,15.35,0,0,1-1.79-5.86C34.15,38,50.27,35.21,55.61,40c8,7.17.58,16.2-4.33,15.8-7.3-.58-7-8.74-2-9.51-1.49,5.12,1.08,6.67,2.87,5.83,2.1-1,4.65-4.69.41-8.28s-14.47,2.39-9.94,11.29c2.88,5.66,13.74,5.92,17.48.78S64,43.57,58.58,37.28s-23-4.62-26.1,7.06C28.82,58,35.73,67.18,46.32,69.4c15.6,3.26,22.76-5.84,25.4-9.63A23.89,23.89,0,0,0,76,47.28a27.29,27.29,0,0,0-.45-6.46c-.19-1.07-.54-2.09-.76-3.15s-.73-2-1.07-3a30.46,30.46,0,0,0-6.67-9.82,28.94,28.94,0,0,0-4.63-3.78,32.28,32.28,0,0,0-13.12-4.82c-1.13-.05-2.25-.2-3.36-.19a29.83,29.83,0,0,0-3.39.17c-1.17.18-2.33.25-3.47.47s-2.25.53-3.38.78C13.91,24.24,5,55.71,26.27,76.79c2,2,6.53,7.44,19.28,13.74,10,5,20.63,6.52,20.65,6.81s-.35.66-1.1,1a9.18,9.18,0,0,1-1.21.46c-.31.1-.65.19-1,.29A19.4,19.4,0,0,1,58.62,99.78Z"/></g></g></svg>