<svg xmlns="http://www.w3.org/2000/svg" viewBox="0 0 97.05 217.35"><defs><style>.cls-1{fill:#d82b2b;stroke:#7f1919;stroke-miterlimit:10;stroke-width:6px;}</style></defs><g id="Camada_2" data-name="Camada 2"><g id="Camada_2-2" data-name="Camada 2"><path class="cls-1" d="M5.59,155.4h14a2.59,2.59,0,0,0,2.59-2.59V5.59A2.59,2.59,0,0,1,24.75,3H72.3a2.59,2.59,0,0,1,2.59,2.59V152.81a2.59,2.59,0,0,0,2.58,2.59h14a2.58,2.58,0,0,1,2,4.2L50.55,213.38a2.58,2.58,0,0,1-4,0L3.57,159.6A2.59,2.59,0,0,1,5.59,155.4Z"/></g></g></svg>