<svg xmlns="http://www.w3.org/2000/svg" viewBox="0 0 265.05 235.16"><defs><style>.cls-1{fill:#e6e6e6;}.cls-1,.cls-2{stroke:#000;stroke-miterlimit:10;stroke-width:6px;}.cls-2{fill:#d5271e;}</style></defs><g id="Camada_2" data-name="Camada 2"><g id="Camada_2-2" data-name="Camada 2"><path class="cls-1" d="M232.85,164.8V226c0,3.42-2.45,6.18-5.47,6.18H171.45c-3,0-5.48-2.76-5.48-6.18V160.2c0-3.41-2.45-6.18-5.48-6.18H104.56c-3,0-5.48,2.77-5.48,6.18V226c0,3.42-2.45,6.18-5.47,6.18H37.68c-3,0-5.48-2.76-5.48-6.18V164.82l0,.06L132.59,51.69Z"/><path class="cls-2" d="M259.2,156.89,249.34,168a9,9,0,0,1-13.79,0L132.53,51.8,29.5,168a9,9,0,0,1-13.78,0L5.85,156.89a12,12,0,0,1,0-15.55L125.64,6.22a9,9,0,0,1,13.78,0L259.2,141.34A12,12,0,0,1,259.2,156.89Z"/></g></g></svg>