<svg xmlns="http://www.w3.org/2000/svg" viewBox="0 0 688.75 817.77"><defs><style>.cls-1{fill:#ccc;}.cls-2{fill:#fff;}.cls-3{fill:#e6e6e6;}</style></defs><g id="Camada_2" data-name="Camada 2"><g id="Camada_2-2" data-name="Camada 2"><ellipse class="cls-1" cx="344.37" cy="781.68" rx="255.85" ry="36.08"/><path class="cls-2" d="M688.69,364.52c-.14,2.5-.3,5-.5,7.46-13.82,177.8-162.47,317.76-343.82,317.76S14.37,549.78.55,372c-.19-2.49-.35-5-.49-7.46A35.06,35.06,0,0,1,4.68,345l.07-.13c14.88-25.65,59.59-44.28,112.44-44.28q7.43,0,14.61.48c42.22,2.79,77.51,17.55,93.64,37.74-.1,2-.16,4-.16,6.07a119.09,119.09,0,0,0,238.18,0c0-2,0-4.07-.15-6.09,16.13-20.17,51.4-34.93,93.63-37.72,4.78-.32,9.66-.48,14.61-.48,52.84,0,97.56,18.63,112.43,44.28l.08.13A35.07,35.07,0,0,1,688.69,364.52Z"/><path class="cls-2" d="M674.51,295.68c-20.08-19.35-58.67-32.43-103-32.43-4.95,0-9.83.17-14.61.48-42.64,2.83-78.23,17.85-94.12,38.34a6.09,6.09,0,0,1-6.48,2.12,119.14,119.14,0,0,0-223.92,0,6.08,6.08,0,0,1-6.49-2.12c-15.91-20.49-51.48-35.51-94.13-38.34-4.79-.31-9.66-.48-14.61-.48-44.3,0-82.88,13.08-103,32.43A6.2,6.2,0,0,1,3.8,290.25C30,125.73,172.49,0,344.37,0S658.77,125.73,685,290.25A6.21,6.21,0,0,1,674.51,295.68Z"/><path class="cls-2" d="M426.07,344.88a81.7,81.7,0,1,1-81.69-81.71A81.69,81.69,0,0,1,426.07,344.88Z"/><ellipse class="cls-3" cx="491.22" cy="97.96" rx="38.07" ry="104.17" transform="translate(174.27 485.82) rotate(-62.02)"/></g></g></svg>