<svg xmlns="http://www.w3.org/2000/svg" viewBox="0 0 132.18 117.18"><defs><style>.cls-1{fill:none;stroke:#666;stroke-linecap:round;stroke-linejoin:round;stroke-width:2.18px;}</style></defs><g id="Camada_2" data-name="Camada 2"><g id="Camada_2-2" data-name="Camada 2"><path class="cls-1" d="M116.44,82.29V113a2.94,2.94,0,0,1-2.75,3.1H85.62a2.94,2.94,0,0,1-2.75-3.1V80a2.94,2.94,0,0,0-2.75-3.1H52.06A2.94,2.94,0,0,0,49.31,80v33a2.94,2.94,0,0,1-2.75,3.1H18.49a2.94,2.94,0,0,1-2.75-3.1V82.3l0,0L66.12,25.53Z"/><path class="cls-1" d="M129.66,78.32l-5,5.58a4.5,4.5,0,0,1-6.92,0L66.09,25.58,14.39,83.9a4.5,4.5,0,0,1-6.92,0L2.52,78.32a6,6,0,0,1,0-7.81L62.63,2.71a4.5,4.5,0,0,1,6.92,0l60.11,67.8A6,6,0,0,1,129.66,78.32Z"/></g></g></svg>