<svg xmlns="http://www.w3.org/2000/svg" viewBox="0 0 103.74 76.17"><defs><style>.cls-1{fill:#8c3800;}</style></defs><g id="Camada_2" data-name="Camada 2"><g id="Camada_2-2" data-name="Camada 2"><path class="cls-1" d="M101.75,76.17H26.26a2,2,0,0,1-1.91-2.55L38.88,23.71,45.39,1.43A2,2,0,0,1,47.3,0H80.71a2,2,0,0,1,1.91,1.43l21,72.19A2,2,0,0,1,101.75,76.17Z"/><path class="cls-1" d="M33.07,26.26,19,74.74a2,2,0,0,1-1.91,1.43H2A2,2,0,0,1,.08,73.62L14.2,25.15a2,2,0,0,1,1.91-1.44H31.16A2,2,0,0,1,33.07,26.26Z"/></g></g></svg>