<svg xmlns="http://www.w3.org/2000/svg" viewBox="0 0 100 93.66"><defs><style>.cls-1{fill:#823aa6;}</style></defs><g id="Camada_2" data-name="Camada 2"><g id="Camada_2-2" data-name="Camada 2"><path class="cls-1" d="M50,0C22.38,0,0,17.45,0,39c0,9.81,10.91,23.17,15.59,28.45a8.28,8.28,0,0,1,2.08,5.47V87.07a6.53,6.53,0,0,0,9.27,6,6.36,6.36,0,0,0,3.67-5.84v-.14a6.48,6.48,0,0,1,8.61-5.9,6,6,0,0,1,3.17,2.49,7.36,7.36,0,0,1,1.15,4,5.78,5.78,0,0,0,3,5.12c5,2.66,10-.84,10-5.51h0v-.16a6.46,6.46,0,0,1,7.68-6.13,6.15,6.15,0,0,1,3.79,2.36,7.1,7.1,0,0,1,1.46,4.32A5.73,5.73,0,0,0,72,92.45a6.58,6.58,0,0,0,10.39-5.38V72.87a8.22,8.22,0,0,1,2.08-5.46C89.12,62.13,100,48.77,100,39,100,17.45,77.63,0,50,0Zm0,60.72C34.58,60.72,22.08,51,22.08,39S34.58,17.2,50,17.2,77.94,26.94,77.94,39,65.44,60.72,50,60.72Z"/></g></g></svg>