<svg xmlns="http://www.w3.org/2000/svg" viewBox="0 0 122.24 90.01"><defs><style>.cls-1{fill:#fff;stroke:#4d4d4d;}.cls-1,.cls-2{stroke-linecap:round;stroke-linejoin:round;stroke-width:2px;}.cls-2{fill:#46aff7;stroke:#00649b;}</style></defs><g id="Camada_2" data-name="Camada 2"><g id="Camada_2-2" data-name="Camada 2"><path class="cls-1" d="M56.2,12.24c-.35.46-2.72,3.5-2.82,3.7a17.52,17.52,0,0,0-7.69-2A15.47,15.47,0,0,0,30.46,26.67a18.61,18.61,0,0,0-3.28-.29,18.4,18.4,0,0,0-12,4.42l-.43.37-.3.28-.48.47-.39.4-.16.18L13,33c-.13.15-.26.31-.38.47a3,3,0,0,0-.22.28l-.32.43-.06.1c-.13.18-.26.37-.38.56l0,0a6.65,6.65,0,0,0-.39.63c-.17.27-.32.55-.46.83s-.16.31-.23.46-.29.61-.42.91l-.26.65v0c-.09.24-.17.47-.25.71,0,0,0,0,0,.06-.06.18-.11.36-.17.54a.36.36,0,0,0,0,.1,3.74,3.74,0,0,0-.12.45.17.17,0,0,0,0,.1c0,.13-.07.27-.11.4v0c-.05.21-.09.41-.13.62v.07a10.32,10.32,0,0,1-7.38-6.58C0,30.52,1.69,25.29,4.55,23.4a6.42,6.42,0,0,1,1.65-.68l-.09-.28A16.22,16.22,0,0,1,35.3,8.75a12.19,12.19,0,0,1,4.68-3A13.75,13.75,0,0,1,56.2,12.24Z"/><path class="cls-1" d="M121.24,49.1a18.51,18.51,0,0,1-18.51,18.51H29.42A18.51,18.51,0,0,1,12.64,56.93h0a16.88,16.88,0,0,1-1.72-7.82A19.56,19.56,0,0,1,17.42,35a18.54,18.54,0,0,1,15.27-4.12A15.48,15.48,0,0,1,55.13,19.94c.29-.6.61-1.18.95-1.74a24.18,24.18,0,0,1,45,12.4v.07c.55-.05,1.11-.07,1.67-.07a18.48,18.48,0,0,1,14,6.46h0A18.36,18.36,0,0,1,121.24,49.1Z"/><rect class="cls-2" x="24.68" y="72.43" width="4.8" height="18.6" rx="2.4" transform="translate(-11.56 158.67) rotate(-135)"/><rect class="cls-2" x="50.67" y="72.43" width="4.8" height="18.6" rx="2.4" transform="translate(32.81 177.05) rotate(-135)"/><rect class="cls-2" x="76.66" y="72.43" width="4.8" height="18.6" rx="2.4" transform="translate(77.18 195.43) rotate(-135)"/><rect class="cls-2" x="102.65" y="72.43" width="4.8" height="18.6" rx="2.4" transform="translate(121.55 213.81) rotate(-135)"/></g></g></svg>