<svg xmlns="http://www.w3.org/2000/svg" viewBox="0 0 126.03 126.03"><defs><style>.cls-1{fill:#7d7d7d;}</style></defs><g id="Camada_2" data-name="Camada 2"><g id="Camada_2-2" data-name="Camada 2"><path class="cls-1" d="M120.14,52.53l-3.14,0a10.14,10.14,0,0,1-9.57-6.36c-.33-.84-.68-1.67-1.05-2.48a10.15,10.15,0,0,1,2.19-11.48L110.82,30a5.89,5.89,0,0,0,0-8.33l-6.49-6.49a5.89,5.89,0,0,0-8.33,0l-2.37,2.43a10.14,10.14,0,0,1-11.37,2.25c-.77-.33-1.54-.65-2.32-.95a10.16,10.16,0,0,1-6.5-9.67c0-1.89,0-3.39,0-3.39A5.88,5.88,0,0,0,67.61,0H58.42a5.88,5.88,0,0,0-5.88,5.88s0,1.5.05,3.39a10.16,10.16,0,0,1-6.5,9.67c-.78.3-1.55.62-2.32.95A10.14,10.14,0,0,1,32.4,17.64L30,15.21a5.89,5.89,0,0,0-8.33,0L15.21,21.7a5.89,5.89,0,0,0,0,8.33s1,1,2.25,2.2a10.17,10.17,0,0,1,2.19,11.49c-.37.82-.72,1.64-1,2.48A10.14,10.14,0,0,1,9,52.56l-3.14,0A5.89,5.89,0,0,0,0,58.42v9.19a5.88,5.88,0,0,0,5.89,5.88l2.81,0A10.14,10.14,0,0,1,18.3,80c.34.94.71,1.85,1.11,2.76A10.11,10.11,0,0,1,17.2,94l-2,2a5.89,5.89,0,0,0,0,8.33l6.49,6.49a5.89,5.89,0,0,0,8.33,0L31.82,109a10.15,10.15,0,0,1,11.39-2.15c.95.43,1.92.84,2.9,1.21a10.14,10.14,0,0,1,6.44,9.56c0,1.44,0,2.51,0,2.51A5.88,5.88,0,0,0,58.42,126h9.19a5.88,5.88,0,0,0,5.88-5.89s0-1.07,0-2.51a10.14,10.14,0,0,1,6.44-9.56c1-.37,2-.78,2.91-1.21A10.13,10.13,0,0,1,94.21,109L96,110.82a5.89,5.89,0,0,0,8.33,0l6.49-6.49a5.89,5.89,0,0,0,0-8.33l-2-2a10.11,10.11,0,0,1-2.21-11.26c.4-.9.77-1.82,1.11-2.75a10.13,10.13,0,0,1,9.6-6.55l2.81,0A5.88,5.88,0,0,0,126,67.61V58.42A5.89,5.89,0,0,0,120.14,52.53ZM60.94,89A25.53,25.53,0,1,1,88.46,61.44,25.62,25.62,0,0,1,60.94,89Z"/></g></g></svg>