<svg xmlns="http://www.w3.org/2000/svg" viewBox="0 0 123.42 98.75"><defs><style>.cls-1{fill:#bee4f4;stroke:#0b7fb2;stroke-linecap:round;stroke-linejoin:round;stroke-width:2px;}</style></defs><g id="Camada_2" data-name="Camada 2"><g id="Camada_2-2" data-name="Camada 2"><path class="cls-1" d="M1,50v.22a3,3,0,0,0,3,3H105A17.4,17.4,0,1,0,87.89,32.75a16.2,16.2,0,0,0-.28,3.06V36a2.94,2.94,0,0,0,3,2.88h.22a3,3,0,0,0,3-3v0a11,11,0,0,1,.42-3.06A11.29,11.29,0,1,1,105,47.09H4A3,3,0,0,0,1,50Z"/><path class="cls-1" d="M1,66.12V65.9a3,3,0,0,1,3-3H78.28a17.41,17.41,0,1,1-17.4,17.4v-.18a2.93,2.93,0,0,1,2.95-2.88h.22a3,3,0,0,1,2.94,3v0a11.47,11.47,0,0,0,.42,3.06A11.29,11.29,0,1,0,78.28,69.07H4A3,3,0,0,1,1,66.12Z"/><path class="cls-1" d="M1,32.63v.23A3,3,0,0,0,4,35.8H53A17.4,17.4,0,1,0,35.83,15.35a16.2,16.2,0,0,0-.27,3.06v.17a2.93,2.93,0,0,0,2.94,2.88h.23a3,3,0,0,0,2.94-3v0a11,11,0,0,1,.42-3.06A11.29,11.29,0,1,1,53,29.69H4A3,3,0,0,0,1,32.63Z"/></g></g></svg>