<svg xmlns="http://www.w3.org/2000/svg" viewBox="0 0 100 105.59"><defs><style>.cls-1{fill:#690;}</style></defs><g id="Camada_2" data-name="Camada 2"><g id="Camada_2-2" data-name="Camada 2"><path class="cls-1" d="M100,62c0,17.37-8.43,33.65-21,42.15a8.55,8.55,0,0,1-9,.35,42.77,42.77,0,0,1-14.41-13c-1.14-1.75-3-5.28-3-8.26V45.94a29.41,29.41,0,0,0,14-3.91C77.06,36.4,84.15,26.68,84.15,26.68A47.13,47.13,0,0,1,100,62Z"/><path class="cls-1" d="M47.37,45.94V83.18c0,3-1.93,6.51-3.07,8.26a42.77,42.77,0,0,1-14.41,13,8.55,8.55,0,0,1-9-.35C8.41,95.64,0,79.36,0,62A47.13,47.13,0,0,1,15.85,26.68a.1.1,0,0,1,0,.06c.67.87,7.56,9.92,17.45,15.29A29.41,29.41,0,0,0,47.37,45.94Z"/><path class="cls-1" d="M81.52,22.39S74.43,32.11,64,37.74a29.41,29.41,0,0,1-14,3.91,29.41,29.41,0,0,1-14-3.91c-9.89-5.37-16.78-14.42-17.45-15.29a.1.1,0,0,0,0-.06,47.08,47.08,0,0,1,15.06-9.11l-4.85-9A3.07,3.07,0,0,1,29.45.44a2.15,2.15,0,0,1,3.27.88L38.33,11.8a47.17,47.17,0,0,1,23.29,0L67.28,1.32a2.32,2.32,0,0,1,2-1.29,2.23,2.23,0,0,1,1.29.44,3.09,3.09,0,0,1,.73,3.85l-4.88,9A46.72,46.72,0,0,1,81.52,22.39Z"/></g></g></svg>