<svg xmlns="http://www.w3.org/2000/svg" viewBox="0 0 100 97.28"><defs><style>.cls-1{fill:#3060bf;}</style></defs><g id="Camada_2" data-name="Camada 2"><g id="Camada_2-2" data-name="Camada 2"><path class="cls-1" d="M49.94,40.11C68.72,41.74,81,32.86,87.24,27.44c2.46-2.14,4.51,1.49,3.93,3.8C90.4,34.36,82,52.74,54.64,58.51c16.27.73,23.12-7,25.35-8,2.64-1.16,3.53,3,3,4.71-.9,2.83-4.5,10.32-15.22,15.22a38.36,38.36,0,0,1-9.18,3.21c7.84,2.42,15.56-3.45,18.1-4.89A2.15,2.15,0,0,1,80,70.57c0,2.64-3.68,8.2-5.77,10.66S60,98.56,32.66,97.2C14.78,96.3,0,82.93,0,61.25S13.44,24,35.14,23.28C63.56,22.34,94.21.85,95.78.22a3.14,3.14,0,0,1,4.16,3.42C98.64,8.69,89.19,34.52,49.94,40.11Z"/></g></g></svg>