<svg xmlns="http://www.w3.org/2000/svg" viewBox="0 0 117.49 117.49"><defs><style>.cls-1{fill:none;stroke:#666;stroke-linecap:round;stroke-linejoin:round;stroke-width:2.49px;}</style></defs><g id="Camada_2" data-name="Camada 2"><g id="Camada_2-2" data-name="Camada 2"><path class="cls-1" d="M115.92,52.64H82.27a24.3,24.3,0,0,0-47,0H1.56a60.27,60.27,0,0,0,0,12.21H35.22a24.3,24.3,0,0,0,47.05,0h33.65a56.64,56.64,0,0,0,0-12.21ZM68.36,64.85a11.36,11.36,0,1,1,1.78-6.1A11.36,11.36,0,0,1,68.36,64.85Z"/><path class="cls-1" d="M115.92,64.85a57.5,57.5,0,0,1-114.36,0H35.22a24.3,24.3,0,0,0,47.05,0Z"/><path class="cls-1" d="M115.92,52.64H82.27a24.3,24.3,0,0,0-47,0H1.56a57.51,57.51,0,0,1,114.36,0Z"/><path class="cls-1" d="M70.14,58.75a11.41,11.41,0,0,1-11.4,11.39,11.4,11.4,0,1,1,9.62-17.5A11.27,11.27,0,0,1,70.14,58.75Z"/></g></g></svg>