<svg xmlns="http://www.w3.org/2000/svg" viewBox="0 0 97.05 217.35"><defs><style>.cls-1{fill:#59d334;stroke:#32661a;stroke-miterlimit:10;stroke-width:6px;}</style></defs><g id="Camada_2" data-name="Camada 2"><g id="Camada_2-2" data-name="Camada 2"><path class="cls-1" d="M91.46,62h-14a2.59,2.59,0,0,0-2.58,2.59V211.77a2.59,2.59,0,0,1-2.59,2.58H24.75a2.59,2.59,0,0,1-2.58-2.58V64.54A2.59,2.59,0,0,0,19.58,62h-14a2.59,2.59,0,0,1-2-4.2L46.51,4a2.59,2.59,0,0,1,4,0L93.48,57.75A2.58,2.58,0,0,1,91.46,62Z"/></g></g></svg>