<svg xmlns="http://www.w3.org/2000/svg" viewBox="0 0 75.42 100.67"><defs><style>.cls-1{fill:#d5271e;}</style></defs><g id="Camada_2" data-name="Camada 2"><g id="Camada_2-2" data-name="Camada 2"><path class="cls-1" d="M48.77,77.85h-31a5.94,5.94,0,0,0-5.94,5.93v11a5.93,5.93,0,0,0,5.94,5.93h31a5.92,5.92,0,0,0,5.93-5.93v-11A5.93,5.93,0,0,0,48.77,77.85Zm-7.38,16c0,.63-1,1.13-2.24,1.13H27.41c-1.25,0-2.25-.5-2.25-1.13V91.78c0-.62,1-1.13,2.25-1.13H39.15c1.24,0,2.24.51,2.24,1.13Zm0-7.13c0,.63-1,1.13-2.24,1.13H27.41c-1.25,0-2.25-.5-2.25-1.13V84.65c0-.62,1-1.13,2.25-1.13H39.15c1.24,0,2.24.51,2.24,1.13Z"/><path class="cls-1" d="M75.41,34.12c-.22,5.47-.87,5.78-13.36,5.78-13.3,0-15.16-7.8-12.7-11.94,3.22-5.44,8.51-6.32,12.7-5.58C72,24.13,75.69,27,75.41,34.12Z"/><path class="cls-1" d="M74,41.91c-.66,1.77-10.25,32.15-23.72,32.15-.48,0-1,.07-1.46.07H23.35c-21.55,0-21-22-23.11-38.55S10.2,0,28.92,0H43C54.85,0,65.26,6.48,70.1,16.07c.42.83,2.54,5.48,2.31,6.54S67.22,19.81,60,19.42c-5.18-.28-11.57,2.27-14,7.23-2.31,4.61-.2,11,5.6,14.08,1.5.82-7.54,3-15.5,3-15.07,0-18.78-4.44-19.79-8.64L13.68,24.33a1.46,1.46,0,0,0-1.42-1.12h0A1.46,1.46,0,0,0,10.83,25L13.65,37.4c1.14,4.06,5.41,9.28,22.45,9.28,10.12,0,15.65-1.24,18.57-3.3,2.08-1.47,1.69-1.25,3.3-1C70.06,43.94,74.6,40.23,74,41.91Z"/></g></g></svg>