<svg xmlns="http://www.w3.org/2000/svg" viewBox="0 0 100 89.06"><defs><style>.cls-1{fill:#219ba6;}</style></defs><g id="Camada_2" data-name="Camada 2"><g id="Camada_2-2" data-name="Camada 2"><path class="cls-1" d="M24.48,62.66,45.07,50.58a2,2,0,0,1,3,1.72l-.13,22.8a2,2,0,0,1-1,1.71l-20.59,12a2,2,0,0,1-3-1.73l.13-22.69A2,2,0,0,1,24.48,62.66Z"/><path class="cls-1" d="M24.48,62.66,45.07,50.58a2,2,0,0,1,3,1.72l-.13,22.8a2,2,0,0,1-1,1.71l-20.59,12a2,2,0,0,1-3-1.73l.13-22.69A2,2,0,0,1,24.48,62.66Z"/><path class="cls-1" d="M24.48,26.4,45.07,38.49a2,2,0,0,0,3-1.73L47.93,14a2,2,0,0,0-1-1.71L26.36.27a2,2,0,0,0-3,1.73l.13,22.7A2,2,0,0,0,24.48,26.4Z"/><path class="cls-1" d="M22.51,31.26l20.92,11.5a2,2,0,0,1,0,3.46L23.82,57.77a2,2,0,0,1-2,0L1,46.24a2,2,0,0,1,0-3.45l19.56-11.5A2,2,0,0,1,22.51,31.26Z"/><path class="cls-1" d="M75.52,62.66,54.93,50.58a2,2,0,0,0-3,1.72l.13,22.8a2,2,0,0,0,1,1.71l20.59,12a2,2,0,0,0,3-1.73L76.5,64.37A2,2,0,0,0,75.52,62.66Z"/><path class="cls-1" d="M75.52,26.4,54.93,38.49a2,2,0,0,1-3-1.73L52.07,14a2,2,0,0,1,1-1.71L73.64.27a2,2,0,0,1,3,1.73L76.5,24.7A2,2,0,0,1,75.52,26.4Z"/><path class="cls-1" d="M77.49,31.26,56.57,42.76a2,2,0,0,0,0,3.46L76.18,57.77a2,2,0,0,0,2,0L99,46.24a2,2,0,0,0,0-3.45L79.46,31.29A2,2,0,0,0,77.49,31.26Z"/></g></g></svg>