<svg xmlns="http://www.w3.org/2000/svg" viewBox="0 0 100 130.08"><defs><style>.cls-1{fill:#196ba6;}</style></defs><g id="Camada_2" data-name="Camada 2"><g id="Camada_2-2" data-name="Camada 2"><path class="cls-1" d="M95.18,58.69c-7.3-15.5-19.48-25-36.9-26.54a3.46,3.46,0,0,1-3-4L59.41.67A.53.53,0,0,0,58.5.19C52.43,7.49,34.29,27.12,28.31,34.9A5.79,5.79,0,0,1,26,36.6C15.56,41.32,1.11,60.88,0,76.43a2.32,2.32,0,0,0,2.74,2.44L63.48,67.65a5.41,5.41,0,0,1,5.78,2.72,28.43,28.43,0,0,1,3.37,13.38c0,17.87-14.18,29.64-35,29.64-18.12,0-29-7.49-36-17.79a.68.68,0,0,0-1.23.48C3.58,117.46,21,128.1,43,129.89c30,2.45,56.6-19,57-49.17A49.5,49.5,0,0,0,95.18,58.69ZM31.57,49.93l-2.7,8.66-.31.31-8.65,2.69a.46.46,0,0,1-.58-.58L22,52.36l.31-.31L31,49.35A.46.46,0,0,1,31.57,49.93Z"/></g></g></svg>