<svg xmlns="http://www.w3.org/2000/svg" viewBox="0 0 100 100"><defs><style>.cls-1{fill:#5e3aa6;}</style></defs><g id="Camada_2" data-name="Camada 2"><g id="Camada_2-2" data-name="Camada 2"><path class="cls-1" d="M89.29,88.69c-3-3-1-6.26.27-7.7C97.2,72.21,100,62.55,100,50a50,50,0,1,0-50,50H96.83a2.26,2.26,0,0,0,1.43-4ZM31,48.75a8.34,8.34,0,0,1-1.48-9.85,1.88,1.88,0,0,1,3-.47l8.82,8.8a1.88,1.88,0,0,1-.46,3A8.39,8.39,0,0,1,31,48.75ZM67.48,38.44a1.88,1.88,0,0,1,3,.46A8.37,8.37,0,0,1,59.15,50.22a1.88,1.88,0,0,1-.47-3Z"/></g></g></svg>