<svg xmlns="http://www.w3.org/2000/svg" viewBox="0 0 235.16 235.16"><defs><style>.cls-1{fill:#070707;}.cls-1,.cls-2,.cls-3,.cls-4{stroke:#000;stroke-miterlimit:10;stroke-width:6px;}.cls-2{fill:#e6e6e6;}.cls-3{fill:#d5271e;}.cls-4{fill:#fff;}</style></defs><g id="Camada_2" data-name="Camada 2"><g id="Camada_2-2" data-name="Camada 2"><path class="cls-1" d="M231.52,105.41H164.46a48.44,48.44,0,0,0-93.76,0H3.64a116.13,116.13,0,0,0,0,24.35H70.7a48.44,48.44,0,0,0,93.76,0h67.06a116.13,116.13,0,0,0,0-24.35Zm-94.77,24.35a22.65,22.65,0,1,1,3.55-12.18A22.68,22.68,0,0,1,136.75,129.76Z"/><path class="cls-2" d="M231.52,129.76a114.59,114.59,0,0,1-227.88,0H70.7a48.44,48.44,0,0,0,93.76,0Z"/><path class="cls-3" d="M231.52,105.41H164.46a48.44,48.44,0,0,0-93.76,0H3.64a114.59,114.59,0,0,1,227.88,0Z"/><path class="cls-4" d="M140.3,117.58a22.74,22.74,0,1,1-3.55-12.17A22.54,22.54,0,0,1,140.3,117.58Z"/></g></g></svg>