<svg xmlns="http://www.w3.org/2000/svg" viewBox="0 0 110.85 110.85"><defs><style>.cls-1{fill:#ffc024;stroke:#ff7e1d;stroke-miterlimit:10;stroke-width:2px;}</style></defs><g id="Camada_2" data-name="Camada 2"><g id="Camada_2-2" data-name="Camada 2"><circle class="cls-1" cx="55.43" cy="55.43" r="31.01"/><rect class="cls-1" x="53.02" y="91.25" width="4.8" height="18.6" rx="2.4"/><rect class="cls-1" x="53.02" y="1" width="4.8" height="18.6" rx="2.4"/><rect class="cls-1" x="7.9" y="46.12" width="4.8" height="18.6" rx="2.4" transform="translate(65.73 45.12) rotate(90)"/><rect class="cls-1" x="98.15" y="46.12" width="4.8" height="18.6" rx="2.4" transform="translate(155.98 -45.12) rotate(90)"/><rect class="cls-1" x="21.12" y="14.22" width="4.8" height="18.6" rx="2.4" transform="translate(56.78 23.52) rotate(135)"/><rect class="cls-1" x="84.93" y="78.03" width="4.8" height="18.6" rx="2.4" transform="translate(210.84 87.33) rotate(135)"/><rect class="cls-1" x="84.93" y="14.22" width="4.8" height="18.6" rx="2.4" transform="translate(132.46 101.9) rotate(-135)"/><rect class="cls-1" x="21.12" y="78.03" width="4.8" height="18.6" rx="2.4" transform="translate(-21.61 165.72) rotate(-135)"/></g></g></svg>