<svg xmlns="http://www.w3.org/2000/svg" viewBox="0 0 68.86 100"><defs><style>.cls-1{fill:#0493c6;}</style></defs><g id="Camada_2" data-name="Camada 2"><g id="Camada_2-2" data-name="Camada 2"><path class="cls-1" d="M38.89,2.45a5.28,5.28,0,0,0-8.92,0C20.66,17,0,50.84,0,65.55a34.43,34.43,0,1,0,68.86,0C68.86,50.84,48.2,17,38.89,2.45ZM53.25,76.78a19.27,19.27,0,0,1-19.63,13.4,19.54,19.54,0,0,1-18-18.87A19.26,19.26,0,0,1,21.17,57.4c.2-.16.42,0,.39.22-1.95,10.84,5.69,21.62,16.69,22.84A19,19,0,0,0,52.52,76.3C52.87,76,53.41,76.36,53.25,76.78Z"/></g></g></svg>