<svg xmlns="http://www.w3.org/2000/svg" viewBox="0 0 112.34 63.21"><defs><style>.cls-1{fill:#fff;stroke:#4d4d4d;stroke-linecap:round;stroke-linejoin:round;stroke-width:2px;}</style></defs><g id="Camada_2" data-name="Camada 2"><g id="Camada_2-2" data-name="Camada 2"><path class="cls-1" d="M111.34,43.7A18.51,18.51,0,0,1,92.83,62.21H19.52A18.48,18.48,0,0,1,2.75,51.53h0A17,17,0,0,1,1,43.7,19.63,19.63,0,0,1,7.52,29.61a18.54,18.54,0,0,1,15.27-4.12A15.49,15.49,0,0,1,45.24,14.54c.29-.6.6-1.18.94-1.74a24.21,24.21,0,0,1,45,12.4v.07c.55-.05,1.1-.07,1.66-.07a18.51,18.51,0,0,1,14.06,6.46h0A18.36,18.36,0,0,1,111.34,43.7Z"/></g></g></svg>