<svg xmlns="http://www.w3.org/2000/svg" viewBox="0 0 100 100.09"><defs><style>.cls-1{fill:#009f90;}</style></defs><g id="Camada_2" data-name="Camada 2"><g id="Camada_2-2" data-name="Camada 2"><path class="cls-1" d="M91.79,60.07c-7.46,19.1-18.89,40-45.89,40A48.84,48.84,0,0,1,35.42,99h0a48.31,48.31,0,0,1-13.95-5.39l-2.08-1.39,15.94-20C36.48,74,57,75.44,62.93,74.93c.58,0,.88-.08.83-.27l-6.35-.9C49.76,72.64,38,69.14,38,69.14L53.3,51.66a3.15,3.15,0,0,0,1.56.59s0,0,.09,0a100.28,100.28,0,0,0,15.62,1.55c.73,0,1.34,0,1.82-.06s.55-.06.53-.17-3.48-.5-4.09-.6c-.94-.13-2-.33-3.12-.56-3.5-.68-7.55-1.7-9.52-2.26-.83-.19-1.32-.32-1.32-.32L74.3,27.69c.21-.23-.13-.52-.34-.32L53.4,47.82A107.68,107.68,0,0,1,50,36c-.12-.59-.76-4.07-.76-4.07s-.16.15-.16.52c-.14,3.56,1.2,15,2.31,17.31L34.33,66.73a171.16,171.16,0,0,1-5.5-16.35c-.27-1-.49-2.05-.68-3s-1.23-6.31-1.23-6.31c-.18,0-.21.27-.23.81,0,.18,0,.4,0,.62,0,.4,0,.84,0,1.35a.56.56,0,0,0,0,.22c0,.4,0,.88,0,1.35,0,.15,0,.34.06.55,0,.81.09,1.68.18,2.57,0,0,0,.08,0,.11.15,1.47.28,3,.46,4.63.05.48.11,1,.17,1.48.3,2.46.64,4.93,1,7.13.17.88.33,1.74.48,2.51a.22.22,0,0,0,0,.08c.13.59.24,1.19.37,1.72a.27.27,0,0,1,0,.14c.16.6.28,1.12.42,1.58,0,.07,0,.11.06.18a3.72,3.72,0,0,0,.93,2L13.32,87.54l-.45-.41a48.55,48.55,0,0,1-6.69-9.22l0,0A48.53,48.53,0,0,1,0,54.1c0-27,20.92-38.43,40-45.89C51.89,3.53,81.92-1,99.82.18V.27C101,18.17,96.47,48.2,91.79,60.07Z"/></g></g></svg>