<svg xmlns="http://www.w3.org/2000/svg" viewBox="0 0 88.55 101.25"><defs><style>.cls-1{fill:#bee4f4;stroke:#0b7fb2;stroke-linecap:round;stroke-linejoin:round;stroke-width:2px;}</style></defs><g id="Camada_2" data-name="Camada 2"><g id="Camada_2-2" data-name="Camada 2"><path class="cls-1" d="M86.21,70.06l-6.37-3.68,4.25-1.14a2.67,2.67,0,1,0-1.38-5.16l-6.9,1.85a2.6,2.6,0,0,0-1.59,1.2l-5.59-3.22,4.24-1.13a2.67,2.67,0,0,0-1.38-5.16l-6.91,1.85A2.63,2.63,0,0,0,63,56.66l-1.94-1.13V42.68a2,2,0,0,0-.42-1.24l1-.58a2.64,2.64,0,0,0,1.58,1.19l6.9,1.85a2.67,2.67,0,0,0,1.38-5.16l-4.23-1.13,5.58-3.23a2.59,2.59,0,0,0,1.59,1.2l6.91,1.85a2.67,2.67,0,1,0,1.38-5.15l-4.25-1.14,6.37-3.68a2.69,2.69,0,0,0,1-3.65,2.69,2.69,0,0,0-3.65-1l-5.74,3.32.87-3.26a2.67,2.67,0,1,0-5.16-1.38l-1.85,6.9a2.57,2.57,0,0,0,0,1.29l-5,2.92.86-3.24a2.66,2.66,0,0,0-.27-2A2.66,2.66,0,0,0,61,28L59.1,34.91a2.61,2.61,0,0,0,0,1.27l-3.6,2.07-7.95-4.59V30.47a2.62,2.62,0,0,0,1.82-.78l5-5.05a2.67,2.67,0,0,0-3.77-3.77L47.52,24V17.52a2.64,2.64,0,0,0,1.84-.78l5-5a2.67,2.67,0,0,0-3.78-3.78L47.52,11V3.67a2.67,2.67,0,1,0-5.34,0V10.3L39.8,7.91A2.67,2.67,0,1,0,36,11.69l5.06,5a2.52,2.52,0,0,0,1.1.67v5.82l-2.36-2.36A2.67,2.67,0,0,0,36,24.64l5.06,5.05a2.49,2.49,0,0,0,1.08.66v3.74l-8.24,4.76-3.43-2a2.66,2.66,0,0,0,.23-2L28.9,28A2.67,2.67,0,0,0,24,27.36a2.61,2.61,0,0,0-.27,2l1.13,4.24-5.58-3.23a2.58,2.58,0,0,0,.25-2l-1.86-6.91a2.67,2.67,0,0,0-5.15,1.38l1.14,4.26L7.29,23.47a2.66,2.66,0,0,0-3.64,1,2.63,2.63,0,0,0-.27,2,2.66,2.66,0,0,0,1.24,1.62l5.75,3.32-3.26.87a2.68,2.68,0,0,0-1.89,3.27,2.67,2.67,0,0,0,3.27,1.88l6.91-1.84A2.64,2.64,0,0,0,16.52,35l5.05,2.91-3.23.87a2.67,2.67,0,1,0,1.38,5.16L26.62,42a2.57,2.57,0,0,0,1.11-.61l1.67,1a1.43,1.43,0,0,0,0,.29v9.88l-.05-.09-3.77,2.18A2.63,2.63,0,0,0,24,53.46l-6.91-1.85a2.68,2.68,0,0,0-3.27,1.88,2.69,2.69,0,0,0,1.89,3.27l4.23,1.14-5.58,3.22a2.6,2.6,0,0,0-1.59-1.2l-6.9-1.85A2.66,2.66,0,0,0,2.57,60a2.61,2.61,0,0,0,.27,2,2.69,2.69,0,0,0,1.61,1.25l4.26,1.14L2.34,68A2.68,2.68,0,0,0,3,72.94a2.7,2.7,0,0,0,2-.27l5.74-3.31-.88,3.25A2.67,2.67,0,0,0,15,74l1.85-6.9a2.57,2.57,0,0,0,0-1.29L22,62.89l-.87,3.23a2.67,2.67,0,0,0,5.16,1.38l1.85-6.91a2.56,2.56,0,0,0,0-1.26l1.26-.73a2.09,2.09,0,0,0,1,1.77l11.77,6.8V70.9a2.49,2.49,0,0,0-1.08.66l-5.06,5a2.67,2.67,0,0,0,3.78,3.78L42.18,78v5.83a2.5,2.5,0,0,0-1.1.66l-5.06,5a2.67,2.67,0,0,0,3.78,3.78L42.18,91v6.63a2.67,2.67,0,0,0,5.34,0V90.22l3.11,3.12a2.69,2.69,0,0,0,1.89.78,2.67,2.67,0,0,0,1.89-4.56l-5-5a2.64,2.64,0,0,0-1.84-.78V77.29l3.1,3.1a2.69,2.69,0,0,0,3.77,0,2.68,2.68,0,0,0,0-3.78l-5-5a2.62,2.62,0,0,0-1.82-.78V67.59l11.87-6.86,1,.61a2.73,2.73,0,0,0,0,1.27l1.85,6.9a2.67,2.67,0,0,0,5.16-1.38L66.6,64.9l5.05,2.91a2.57,2.57,0,0,0,0,1.29L73.52,76a2.67,2.67,0,1,0,5.15-1.38l-.87-3.25,5.74,3.31a2.67,2.67,0,1,0,2.67-4.62ZM52.14,53.42a2.07,2.07,0,0,1-1,1.8L46.27,58a1.66,1.66,0,0,1-.43.19l-.15,0-.2,0a2.26,2.26,0,0,1-.52,0l-.21,0-.14,0a1.49,1.49,0,0,1-.45-.19l-4.83-2.78a2.08,2.08,0,0,1-1-1.8V47.84a2.07,2.07,0,0,1,1-1.8l4.83-2.79a1.49,1.49,0,0,1,.45-.19l.14,0L45,43a1.51,1.51,0,0,1,.52,0l.2,0,.15,0a1.66,1.66,0,0,1,.43.19L51.1,46a2.05,2.05,0,0,1,1,1.8Z"/></g></g></svg>