<svg xmlns="http://www.w3.org/2000/svg" viewBox="0 0 92.76 81.89"><defs><style>.cls-1{fill:#663a05;}</style></defs><g id="Camada_2" data-name="Camada 2"><g id="Camada_2-2" data-name="Camada 2"><path class="cls-1" d="M74.72,37.93l2.12-27.67c1-4.06,3-2.29,9,12.46A146.45,146.45,0,0,1,92.58,41a8.31,8.31,0,0,1-.84,5.44,84.58,84.58,0,0,1-4.42,7.64c-1.43,2.17-4.53,1-5.9-.88,0,0-5-10-6-12.23A5.47,5.47,0,0,1,74.72,37.93Z"/><path class="cls-1" d="M74.92,47.25l6.19,12a4.16,4.16,0,0,1-1.4,5.07L52.84,81.12a4.14,4.14,0,0,1-3.81.52l-18.2-6.85c-3.26-1.17-5-3.44-2-5.28L68.92,45.4A4.15,4.15,0,0,1,74.92,47.25Z"/><path class="cls-1" d="M22.22,68.4l46.22-28a4.15,4.15,0,0,0,2-3L73.3,8.32a4.16,4.16,0,0,0-3.69-4.73L34.46,0A4.2,4.2,0,0,0,30.92,1.4L1,35.19a4.16,4.16,0,0,0-1,2.75V64.55A4.15,4.15,0,0,0,4.16,68.7l15.9.31A4.13,4.13,0,0,0,22.22,68.4Z"/></g></g></svg>