<svg xmlns="http://www.w3.org/2000/svg" viewBox="0 0 99.99 100.01"><defs><style>.cls-1{fill:#d957a3;}</style></defs><g id="Camada_2" data-name="Camada 2"><g id="Camada_2-2" data-name="Camada 2"><path class="cls-1" d="M98.74,47.43,78,31.31l.9-7.31A2.63,2.63,0,0,0,76,21.07l-7.31.9L52.59,1.28a3.27,3.27,0,0,0-5.19,0L31.31,22,24,21.07A2.6,2.6,0,0,0,21.08,24l.9,7.31L1.25,47.43a3.27,3.27,0,0,0,0,5.15L22,68.71l-.9,7.3A2.6,2.6,0,0,0,24,78.94L31.31,78,47.4,98.73a3.27,3.27,0,0,0,5.19,0L68.68,78l7.31.9A2.63,2.63,0,0,0,78.91,76l-.9-7.3L98.74,52.58A3.27,3.27,0,0,0,98.74,47.43ZM63.82,50.74,56.54,56.4a.81.81,0,0,0-.16.16l-5.66,7.28a.92.92,0,0,1-1.46,0L43.6,56.56a.65.65,0,0,0-.17-.16l-7.27-5.66a.93.93,0,0,1,0-1.47l7.27-5.66a.65.65,0,0,0,.17-.16l5.66-7.28a.93.93,0,0,1,1.46,0l5.66,7.28a.81.81,0,0,0,.16.16l7.28,5.66A.93.93,0,0,1,63.82,50.74Z"/></g></g></svg>