<svg xmlns="http://www.w3.org/2000/svg" viewBox="0 0 119.51 82.08"><defs><style>.cls-1{fill:#ffc024;stroke:#ff7e1d;stroke-miterlimit:10;}.cls-1,.cls-2{stroke-width:2px;}.cls-2{fill:#fff;stroke:#4d4d4d;stroke-linecap:round;stroke-linejoin:round;}</style></defs><g id="Camada_2" data-name="Camada 2"><g id="Camada_2-2" data-name="Camada 2"><path class="cls-1" d="M102.72,42.64a19.31,19.31,0,0,1-2.23,3.09,18.34,18.34,0,0,0-7.67-1.67,18.58,18.58,0,0,0-3.27.29A15.5,15.5,0,0,0,74.32,31.62a15.26,15.26,0,0,0-6.88,1.62,18.92,18.92,0,1,1,35.28,9.4Z"/><rect class="cls-1" x="98.72" y="3.66" width="2.93" height="11.35" rx="1.47" transform="translate(18.23 -49.04) rotate(30.14)"/><rect class="cls-1" x="61.08" y="13.65" width="2.93" height="11.35" rx="1.47" transform="translate(110.67 -25.07) rotate(120.14)"/><rect class="cls-1" x="108.7" y="41.3" width="2.93" height="11.35" rx="1.47" transform="matrix(-0.5, 0.86, -0.86, -0.5, 206.11, -24.72)"/><rect class="cls-1" x="77.83" y="0.86" width="2.93" height="11.35" rx="1.47" transform="matrix(-0.97, 0.26, -0.26, -0.97, 157.62, -7.48)"/><rect class="cls-1" x="111.51" y="20.41" width="2.93" height="11.35" rx="1.47" transform="translate(116.73 141.97) rotate(-104.86)"/><path class="cls-2" d="M109.61,70.39h0A18.51,18.51,0,0,1,92.82,81.08H19.51A18.5,18.5,0,0,1,5.45,50.54h0a18.45,18.45,0,0,1,14.05-6.47c.56,0,1.12,0,1.67.08v-.08a24.2,24.2,0,0,1,45-12.4c.34.57.65,1.15,1,1.74l.33-.16a15.26,15.26,0,0,1,6.88-1.62A15.5,15.5,0,0,1,89.55,44.35a18.58,18.58,0,0,1,3.27-.29,18.34,18.34,0,0,1,7.67,1.67,18.93,18.93,0,0,1,4.33,2.75,19.53,19.53,0,0,1,6.51,14.09A17,17,0,0,1,109.61,70.39Z"/></g></g></svg>